<?xml version="1.0" encoding="utf-8"?>
<!-- Generator: Adobe Illustrator 26.0.1, SVG Export Plug-In . SVG Version: 6.00 Build 0)  -->
<svg version="1.1" id="Layer_1" xmlns="http://www.w3.org/2000/svg" xmlns:xlink="http://www.w3.org/1999/xlink" x="0px" y="0px"
	 viewBox="0 0 16 16" style="enable-background:new 0 0 16 16;" xml:space="preserve">
<style type="text/css">
	.st0{fill:#312783;stroke:#F6F6F6;stroke-width:0.25;stroke-miterlimit:10;}
</style>
<g>
	<path class="st0" d="M10.16,11.08c-0.11,0.23-0.26,0.44-0.45,0.63c-0.94,0.94-2.47,0.94-3.42,0c-0.19-0.19-0.34-0.4-0.45-0.63
		l-0.59,0.59c0.13,0.21,0.29,0.42,0.47,0.6c1.26,1.26,3.3,1.26,4.56,0c0.19-0.19,0.34-0.39,0.47-0.6L10.16,11.08z"/>
	<path class="st0" d="M11.1,10.88l-0.69-0.69c0.05-0.68-0.18-1.38-0.7-1.9C9.52,8.1,9.31,7.95,9.08,7.83
		C8.8,7.69,8.5,7.61,8.19,7.58c-0.13-0.01-0.26-0.01-0.38,0C7.5,7.61,7.2,7.69,6.92,7.83C6.69,7.95,6.48,8.1,6.29,8.28
		c-0.52,0.52-0.75,1.22-0.7,1.9L4.9,10.88c-0.16-0.58-0.16-1.19,0-1.77C5.01,8.72,5.2,8.35,5.45,8.02C5.47,8,5.48,7.98,5.5,7.96
		c0.01-0.01,0.01-0.02,0.02-0.03c0,0,0-0.01,0.01-0.01C5.54,7.91,5.54,7.9,5.55,7.9c0.01-0.01,0.02-0.02,0.03-0.03
		C5.58,7.86,5.59,7.85,5.6,7.85C5.61,7.83,5.62,7.82,5.63,7.8C5.64,7.8,5.65,7.79,5.66,7.78l0,0c0.01-0.01,0.02-0.02,0.03-0.03
		C5.7,7.74,5.71,7.73,5.72,7.72c0.02-0.02,0.04-0.04,0.06-0.06c0.17-0.16,0.35-0.3,0.54-0.41C6.57,7.09,6.84,6.97,7.11,6.9
		c0,0,0,0,0.01,0c0.22-0.06,0.45-0.1,0.68-0.12c0.13-0.01,0.27-0.01,0.4,0c0.23,0.01,0.46,0.05,0.68,0.12c0,0,0,0,0.01,0
		c0.27,0.08,0.54,0.19,0.79,0.34c0.15,0.09,0.29,0.19,0.42,0.31c0.06,0.05,0.12,0.11,0.18,0.17c0.06,0.06,0.11,0.12,0.17,0.18
		c0.03,0.04,0.07,0.08,0.1,0.12c0.26,0.33,0.44,0.7,0.55,1.09C11.26,9.68,11.26,10.3,11.1,10.88z"/>
	<path class="st0" d="M5.72,7.72C5.71,7.73,5.7,7.74,5.69,7.75C5.68,7.76,5.67,7.77,5.66,7.78l0,0C5.65,7.79,5.64,7.8,5.64,7.8
		C5.62,7.82,5.61,7.83,5.6,7.85C5.59,7.85,5.59,7.86,5.58,7.87C5.57,7.88,5.56,7.89,5.55,7.9C5.55,7.9,5.54,7.91,5.53,7.92
		c0,0,0,0.01-0.01,0.01C5.52,7.94,5.51,7.95,5.5,7.96C5.49,7.98,5.47,8,5.45,8.02C5.2,8.35,5.01,8.72,4.9,9.1
		C3.81,9.42,2.59,9.14,1.74,8.28c-1.26-1.26-1.26-3.3,0-4.56c0.19-0.19,0.39-0.34,0.6-0.47l0.59,0.59C2.7,3.96,2.49,4.11,2.31,4.3
		c-0.94,0.94-0.94,2.47,0,3.42c0.84,0.84,2.16,0.93,3.1,0.27C5.52,7.9,5.62,7.81,5.72,7.72z"/>
	<path class="st0" d="M12.87,2.91L12.18,3.6c-0.68-0.05-1.38,0.18-1.9,0.7L9.37,5.21L9.13,5.44L8.77,5.8l-0.2,0.2l0,0L8,5.44
		L7.43,6.01L5.72,4.3C5.2,3.78,4.5,3.54,3.82,3.6L3.13,2.91c0.58-0.16,1.19-0.16,1.77,0C5.29,3.02,5.66,3.2,5.99,3.46
		c0.05,0.04,0.1,0.08,0.16,0.13C6.15,3.6,6.16,3.61,6.17,3.62l1.26,1.26l0,0L8,4.31l0,0l0,0l0,0l0,0l0.57,0.57L9.84,3.6
		c0.06-0.05,0.11-0.1,0.17-0.14c0.33-0.26,0.7-0.44,1.09-0.55C11.67,2.74,12.29,2.74,12.87,2.91z"/>
	<rect x="8" y="4.31" transform="matrix(0.7071 -0.7071 0.7071 0.7071 -0.7042 6.9176)" class="st0" width="0" height="0"/>
	<path class="st0" d="M14.26,8.28c-0.86,0.86-2.08,1.13-3.17,0.82c-0.11-0.39-0.29-0.76-0.55-1.09c-0.03-0.04-0.07-0.08-0.1-0.12
		c-0.05-0.06-0.11-0.12-0.17-0.18c0.1,0.1,0.2,0.18,0.31,0.26c0.94,0.67,2.26,0.58,3.11-0.26c0.95-0.95,0.94-2.5-0.02-3.43
		c-0.18-0.18-0.39-0.33-0.61-0.44l0.59-0.59c0.21,0.13,0.42,0.29,0.6,0.47C15.52,4.99,15.52,7.03,14.26,8.28z"/>
	<polygon class="st0" points="8,4.31 8,4.31 8,4.31 8,4.31 8,4.31 	"/>
	<polygon class="st0" points="8,4.31 8,4.31 8,4.31 8,4.31 8,4.31 	"/>
</g>
</svg>
